<?xml version="1.0" encoding="UTF-8" standalone="no"?>
<!-- Generator: Adobe Illustrator 12.0.1, SVG Export Plug-In . SVG Version: 6.00 Build 51448)  -->

<svg
   xmlns:dc="http://purl.org/dc/elements/1.1/"
   xmlns:cc="http://creativecommons.org/ns#"
   xmlns:rdf="http://www.w3.org/1999/02/22-rdf-syntax-ns#"
   xmlns:svg="http://www.w3.org/2000/svg"
   xmlns="http://www.w3.org/2000/svg"
   xmlns:sodipodi="http://sodipodi.sourceforge.net/DTD/sodipodi-0.dtd"
   xmlns:inkscape="http://www.inkscape.org/namespaces/inkscape"
   version="1.1"
   id="Layer_1"
   width="600"
   height="600"
   viewBox="0 0 600 600"
   overflow="visible"
   enable-background="new 0 0 600 600"
   xml:space="preserve"
   inkscape:version="0.91 r13725"
   sodipodi:docname="Munsell-system.svg"><metadata
     id="metadata474"><rdf:RDF><cc:Work
         rdf:about=""><dc:format>image/svg+xml</dc:format><dc:type
           rdf:resource="http://purl.org/dc/dcmitype/StillImage" /></cc:Work></rdf:RDF></metadata><defs
     id="defs472" /><sodipodi:namedview
     pagecolor="#ffffff"
     bordercolor="#666666"
     borderopacity="1"
     objecttolerance="10"
     gridtolerance="10"
     guidetolerance="10"
     inkscape:pageopacity="0"
     inkscape:pageshadow="2"
     inkscape:window-width="1920"
     inkscape:window-height="1102"
     id="namedview470"
     showgrid="false"
     inkscape:zoom="1.5733333"
     inkscape:cx="243.87108"
     inkscape:cy="287.41557"
     inkscape:window-x="0"
     inkscape:window-y="35"
     inkscape:window-maximized="1"
     inkscape:current-layer="g95" /><ellipse
     fill="#FFFFFF"
     stroke="#000000"
     cx="378.8037"
     cy="105.793"
     rx="21.0859"
     ry="8.6606"
     id="ellipse5" /><path
     style="fill:#ae676b;stroke:#000000"
     inkscape:connector-curvature="0"
     id="path9"
     d="m 313.8184,230.4014 c 20.3398,-2.7197 42.0479,-4.1899 64.5879,-4.1899 22.54,0 44.2461,1.4702 64.585,4.1895 l 0,41.9561 c -20.3389,-2.7192 -42.0449,-4.1895 -64.585,-4.1895 -22.5401,0 -44.248,1.4702 -64.5879,4.1899 l 0,-41.9561 z" /><path
     style="fill:#8e6fa1;stroke:#000000"
     inkscape:connector-curvature="0"
     id="path11"
     d="m 169.4517,312.2549 c 0,-18.9028 14.8032,-36.3813 39.8955,-50.5786 l 0,41.9556 c -25.0923,14.1973 -39.8955,31.6758 -39.8955,50.5791 l 0,-41.9561 z" /><path
     style="fill:#927830;stroke:#000000"
     inkscape:connector-curvature="0"
     id="path13"
     d="m 546.5996,261.1895 c 25.6191,14.2827 40.7627,31.9458 40.7627,51.0654 l 0,41.9561 c 0,-19.1201 -15.1436,-36.7822 -40.7627,-51.0654 l 0,-41.9561 z" /><path
     style="fill:#a86d4b;stroke:#000000"
     inkscape:connector-curvature="0"
     id="path15"
     d="m 442.9912,230.4009 c 41.8975,5.6011 77.9902,16.5049 103.6084,30.7886 l 0,41.9561 C 520.9814,288.8619 484.8887,277.9581 442.9912,272.357 l 0,-41.9561 z" /><path
     style="fill:#a66885;stroke:#000000"
     inkscape:connector-curvature="0"
     id="path17"
     d="m 209.3472,261.6763 c 25.6665,-14.522 62.1006,-25.6104 104.4712,-31.2749 l 0,41.9561 c -42.3706,5.6646 -78.8047,16.7529 -104.4712,31.2744 l 0,-41.9556 z" /><path
     style="fill:#657bab;stroke:#000000"
     inkscape:connector-curvature="0"
     id="path19"
     d="m 169.4517,312.2549 c 0,19.1182 15.1445,36.7822 40.7632,51.0654 l 0,41.9561 C 184.5962,390.9932 169.4517,373.3291 169.4517,354.211 l 0,-41.9561 z" /><g
     id="g23"><path
       style="fill:#e8e8e8;stroke:#000000;stroke-width:0.92309999"
       inkscape:connector-curvature="0"
       id="path25"
       d="m 399.875,190.4692 c -8.8027,9.7861 -33.2969,9.667 -42.1406,-0.008 0,-13.792 0,-27.584 0,-41.376 8.8398,9.6621 33.3535,9.814 42.1406,0.01 0,13.7915 0,27.5825 0,41.374 z" /><path
       style="fill:#ffffff;stroke:#000000;stroke-width:0.92309999"
       inkscape:connector-curvature="0"
       id="path27"
       d="m 399.875,149.0952 c -8.7871,9.8042 -33.3008,9.6523 -42.1406,-0.01 0,-13.7915 0,-27.5825 0,-41.374 8.832,9.6484 33.373,9.8335 42.1406,0.0117 0,13.7906 0,27.5816 0,41.3721 z" /><path
       style="fill:#cbcbcb;stroke:#000000;stroke-width:0.92309999"
       inkscape:connector-curvature="0"
       id="path29"
       d="m 399.875,231.8428 c -8.8203,9.7686 -33.29,9.6826 -42.1406,-0.005 0,-13.792 0,-27.5845 0,-41.3765 8.8438,9.6748 33.3379,9.7939 42.1406,0.008 0,13.7911 0,27.5826 0,41.3736 z" /><path
       style="fill:#b3b3b3;stroke:#000000;stroke-width:0.92309999"
       inkscape:connector-curvature="0"
       id="path31"
       d="m 399.875,273.2158 c -8.8379,9.7476 -33.2852,9.6987 -42.1406,-0.002 0,-13.792 0,-27.584 0,-41.376 8.8506,9.6875 33.3203,9.7734 42.1406,0.005 0,13.7911 0,27.5821 0,41.3731 z" /><path
       style="fill:#969696;stroke:#000000;stroke-width:0.92309999"
       inkscape:connector-curvature="0"
       id="path33"
       d="m 399.875,314.5898 c -8.8555,9.7285 -33.2793,9.7129 -42.1406,0 0,-13.792 0,-27.584 0,-41.376 8.8555,9.7007 33.3027,9.7495 42.1406,0.002 0,13.7915 0,27.5821 0,41.374 z" /><path
       style="fill:#7c7c7c;stroke:#000000;stroke-width:0.92309999"
       inkscape:connector-curvature="0"
       id="path35"
       d="m 399.875,355.9648 c -8.8721,9.708 -33.2764,9.7285 -42.1406,0 0,-13.792 0,-27.583 0,-41.375 8.8613,9.7129 33.2852,9.7285 42.1406,0 0,13.792 0,27.5831 0,41.375 z" /><path
       style="fill:#616161;stroke:#000000;stroke-width:0.92309999"
       inkscape:connector-curvature="0"
       id="path37"
       d="m 399.875,397.3398 c -8.8916,9.6885 -33.2695,9.7393 -42.1426,0.002 0.004,-13.792 0.002,-27.585 0.002,-41.377 8.8643,9.7285 33.2686,9.708 42.1406,0 0,13.792 0,27.5831 0,41.375 z" /><path
       style="fill:#464646;stroke:#000000;stroke-width:0.92309999"
       inkscape:connector-curvature="0"
       id="path39"
       d="m 399.875,438.7119 c -8.9072,9.668 -33.2637,9.7588 -42.1406,0.006 0,-13.792 0.002,-27.584 -0.002,-41.376 8.873,9.7373 33.251,9.6865 42.1426,-0.002 0,13.7911 0,27.5811 0,41.3721 z" /><path
       style="fill:#303030;stroke:#000000;stroke-width:0.92309999"
       inkscape:connector-curvature="0"
       id="path41"
       d="m 399.875,480.084 c -8.9238,9.6553 -33.2578,9.7754 -42.1406,0.008 0,-13.791 0,-27.583 0,-41.374 8.877,9.7529 33.2334,9.6621 42.1406,-0.006 0,13.791 0,27.5811 0,41.3721 z" /><path
       style="fill:#1c1c1c;stroke:#000000;stroke-width:0.92309999"
       inkscape:connector-curvature="0"
       id="path43"
       d="m 399.875,521.458 c -8.9443,9.6338 -33.2471,9.7891 -42.1406,0.0117 0,-13.793 0,-27.585 0,-41.3779 8.8828,9.7676 33.2168,9.6475 42.1406,-0.008 0,13.791 0,27.583 0,41.374 z" /><path
       style="stroke:#000000;stroke-width:0.92309999"
       inkscape:connector-curvature="0"
       id="path45"
       d="m 399.875,562.833 c -8.9551,9.6133 -33.251,9.8057 -42.1406,0.0117 0,-13.792 0,-27.583 0,-41.375 8.8936,9.7773 33.1963,9.6221 42.1406,-0.0117 0,13.792 0,27.583 0,41.375 z" /></g><g
     id="g47"><path
       fill="none"
       stroke="#7C7C7C"
       stroke-width="9.891"
       stroke-linecap="square"
       stroke-linejoin="bevel"
       d="M378.4062,312.2549"
       id="path49" /><path
       fill="none"
       stroke="#7C7C7C"
       stroke-width="9.891"
       stroke-linecap="square"
       stroke-linejoin="bevel"
       d="M378.4062,354.2109"
       id="path51" /></g><path
     style="fill:#2e7cd6;stroke:#000000"
     inkscape:connector-curvature="0"
     id="path55"
     d="m 12.7334,354.2109 c 0,33.459 26.5029,64.3701 71.333,89.3672 l 0,-41.9561 C 39.2363,376.624 12.7334,345.7138 12.7334,312.2548 l 0,41.9561 z" /><path
     style="fill:#2e7cd6;stroke:#000000"
     inkscape:connector-curvature="0"
     id="path57"
     d="m 64.9746,312.2549 c 0,28.6777 22.7148,55.1738 61.1445,76.5986 l 0,41.957 -42.0527,12.7676 0,-41.9561 C 39.2363,376.624 12.7334,345.7138 12.7334,312.2548 l 52.2412,0 z" /><path
     style="fill:#487bc7;stroke:#000000"
     inkscape:connector-curvature="0"
     id="path59"
     d="m 117.2129,312.2549 c 0,23.8994 18.9268,45.9775 50.9517,63.834 l 0,41.9561 -42.0454,12.7656 0,-41.957 C 87.6895,367.4288 64.9747,340.9327 64.9747,312.255 l 52.2382,0 z" /><path
     style="fill:#597bb9;stroke:#000000"
     inkscape:connector-curvature="0"
     id="path61"
     d="m 169.4517,312.2549 c 0,19.1182 15.1445,36.7822 40.7632,51.0654 l 0,41.9561 -42.0503,12.7686 0,-41.9561 c -32.0249,-17.8564 -50.9517,-39.9346 -50.9517,-63.834 l 52.2388,0 z" /><path
     style="fill:#657bab;stroke:#000000"
     inkscape:connector-curvature="0"
     id="path63"
     d="m 221.6909,312.2549 c 0,14.3389 11.3574,27.5869 30.5718,38.2988 l 0,41.957 -42.0479,12.7656 0,-41.9561 C 184.5961,349.037 169.4516,331.3729 169.4516,312.2548 l 52.2393,0 z" /><path
     style="fill:#6f7a9c;stroke:#000000"
     inkscape:connector-curvature="0"
     id="path65"
     d="m 294.3101,379.7441 0,-41.957 c -12.8091,-7.1416 -20.3813,-15.9736 -20.3813,-25.5322 l -52.2378,0 c 0,14.3389 11.3574,27.5869 30.5718,38.2988 l 0,41.957 42.0473,-12.7666 z" /><path
     style="fill:#787a8e;stroke:#000000"
     inkscape:connector-curvature="0"
     id="path67"
     d="m 294.3101,379.7441 42.0483,-12.7666 0,-41.957 c -6.4043,-3.5703 -10.1904,-7.9863 -10.1904,-12.7656 l -52.2393,0 c 0,9.5586 7.5723,18.3906 20.3813,25.5322 l 0,41.957 z" /><path
     style="fill:#7c7c7c;stroke:#000000"
     inkscape:connector-curvature="0"
     id="path69"
     d="m 361.4521,317.4053 0,41.9531 -25.0938,7.6191 0,-41.957 c -6.4043,-3.5703 -10.1904,-7.9863 -10.1904,-12.7656 l 31.457,-0.0195 c 10e-5,2.125 2.2501,4 3.8272,5.1699 z" /><line
     style="fill:none;stroke:#000000"
     id="line71"
     y2="401.6221"
     x2="84.066399"
     y1="317.40329"
     x1="361.44919" /><path
     style="fill:#2d8788;stroke:#000000"
     inkscape:connector-curvature="0"
     id="path75"
     d="m 442.9951,394.1074 c -20.3389,2.7197 -42.0469,4.1895 -64.5889,4.1895 -22.5381,0 -44.2451,-1.4697 -64.584,-4.1885 l 0,41.9561 c 20.3389,2.7188 42.0459,4.1885 64.584,4.1885 22.542,0 44.25,-1.4697 64.5889,-4.1904 l 0,-41.9552 z" /><path
     style="fill:#42886d;stroke:#000000"
     inkscape:connector-curvature="0"
     id="path77"
     d="m 547.4678,362.832 c -25.667,14.5225 -62.1016,25.6113 -104.4727,31.2754 l 0,41.9551 c 42.3711,-5.6641 78.8057,-16.752 104.4727,-31.2734 l 0,-41.9571 z" /><path
     style="fill:#72823d;stroke:#000000"
     inkscape:connector-curvature="0"
     id="path79"
     d="m 587.3623,312.2549 c 0,18.9023 -14.8037,36.3818 -39.8945,50.5771 l 0,41.957 c 25.0908,-14.1973 39.8945,-31.6758 39.8945,-50.5781 l 0,-41.956 z" /><path
     style="fill:#3584a2;stroke:#000000"
     inkscape:connector-curvature="0"
     id="path81"
     d="M 313.8223,394.1084 C 271.9258,388.5068 235.833,377.6045 210.2149,363.3203 l 0,41.9561 c 25.6182,14.2832 61.7109,25.1875 103.6074,30.7881 l 0,-41.9561 z" /><g
     id="g87"><path
       inkscape:connector-curvature="0"
       id="path89"
       d="m 305.5195,189.0806 c 0.8809,-0.1802 2.1602,-0.3003 3.3398,-0.3003 1.8613,0 3.0801,0.3599 3.9199,1.1201 0.6602,0.5801 1.0605,1.5 1.0605,2.5601 0,1.7598 -1.1396,2.9399 -2.54,3.4199 l 0,0.0601 c 1.0205,0.3599 1.6396,1.3198 1.9795,2.7197 0.4414,1.8804 0.7607,3.1802 1.0205,3.7002 l -1.7997,0 c -0.2207,-0.3799 -0.5195,-1.54 -0.8799,-3.2202 -0.3994,-1.8599 -1.1396,-2.5596 -2.7197,-2.6196 l -1.6406,0 0,5.8398 -1.7402,0 0,-13.2798 z m 1.7403,6.1196 1.7803,0 c 1.8604,0 3.04,-1.02 3.04,-2.5601 0,-1.7397 -1.2598,-2.5 -3.0996,-2.5 -0.8398,0 -1.4199,0.0801 -1.7207,0.1602 l 0,4.8999 z" /><path
       inkscape:connector-curvature="0"
       id="path91"
       d="m 317.2783,197.8203 c 0.04,2.3799 1.54,3.3599 3.2998,3.3599 1.2598,0 2.04,-0.2197 2.6797,-0.48 l 0.3203,1.2402 c -0.6191,0.2798 -1.6992,0.6201 -3.2402,0.6201 -2.959,0 -4.7598,-1.98 -4.7598,-4.8804 0,-2.9399 1.7402,-5.2397 4.5605,-5.2397 3.1602,0 3.9795,2.7798 3.9795,4.5601 0,0.3599 -0.0205,0.6396 -0.0596,0.8398 l -6.7802,-0.02 z m 5.1397,-1.2598 c 0.0205,-1.1001 -0.459,-2.8604 -2.4199,-2.8604 -1.7998,0 -2.5596,1.6401 -2.6992,2.8604 l 5.1191,0 z" /><path
       inkscape:connector-curvature="0"
       id="path93"
       d="m 334.6582,188.1602 0,11.7002 c 0,0.8599 0.0195,1.8398 0.0801,2.5 l -1.5801,0 -0.0801,-1.6802 -0.0391,0 c -0.541,1.0801 -1.7012,1.9004 -3.2812,1.9004 -2.3398,0 -4.1602,-1.98 -4.1602,-4.9204 -0.0195,-3.2397 2,-5.1997 4.3408,-5.1997 1.5,0 2.5,0.6997 2.9199,1.46 l 0.04,0 0,-5.7603 1.7599,0 z m -1.7598,8.4599 c 0,-0.2397 -0.0195,-0.5195 -0.0801,-0.7598 -0.2598,-1.1001 -1.2207,-2.02 -2.54,-2.02 -1.8193,0 -2.8994,1.6001 -2.8994,3.7202 0,1.98 0.9795,3.5996 2.8594,3.5996 1.1797,0 2.2598,-0.7998 2.5801,-2.0996 0.0605,-0.2402 0.0801,-0.48 0.0801,-0.7603 l 0,-1.6801 z" /></g><g
     id="g95"><path
       inkscape:connector-curvature="0"
       id="path97"
       d="m 182.52,194.0806 c 0.8799,-0.1802 2.1602,-0.3003 3.3398,-0.3003 1.8604,0 3.0801,0.3599 3.9199,1.1201 0.6602,0.5801 1.0601,1.5 1.0601,2.5601 0,1.7598 -1.1396,2.9399 -2.54,3.4199 l 0,0.0601 c 1.02,0.3599 1.6401,1.3198 1.98,2.7197 0.4404,1.8804 0.7603,3.1802 1.02,3.7002 l -1.7998,0 c -0.2202,-0.3799 -0.52,-1.54 -0.8799,-3.2202 -0.3999,-1.8599 -1.1401,-2.5596 -2.7202,-2.6196 l -1.6401,0 0,5.8398 -1.7398,0 0,-13.2798 z m 1.7398,6.1196 1.7803,0 c 1.8599,0 3.04,-1.02 3.04,-2.5601 0,-1.7397 -1.2603,-2.5 -3.1001,-2.5 -0.8398,0 -1.4199,0.0801 -1.7202,0.1602 l 0,4.8999 z" /><path
       inkscape:connector-curvature="0"
       id="path99"
       d="m 194.2783,202.8203 c 0.04,2.3799 1.54,3.3599 3.2998,3.3599 1.2603,0 2.04,-0.2197 2.6802,-0.48 l 0.3198,1.2402 c -0.6196,0.2798 -1.6997,0.6201 -3.2397,0.6201 -2.96,0 -4.7603,-1.98 -4.7603,-4.8804 0,-2.9399 1.7402,-5.2397 4.5601,-5.2397 3.1602,0 3.98,2.7798 3.98,4.5601 0,0.3599 -0.02,0.6396 -0.0596,0.8398 l -6.7803,-0.02 z m 5.1402,-1.2598 c 0.02,-1.1001 -0.46,-2.8604 -2.4199,-2.8604 -1.8003,0 -2.5601,1.6401 -2.7002,2.8604 l 5.1201,0 z" /><path
       inkscape:connector-curvature="0"
       id="path101"
       d="m 211.6582,193.1602 0,11.7002 c 0,0.8599 0.02,1.8398 0.0801,2.5 l -1.5801,0 -0.0801,-1.6802 -0.0396,0 c -0.54,1.0801 -1.7002,1.9004 -3.2803,1.9004 -2.3398,0 -4.1602,-1.98 -4.1602,-4.9204 -0.02,-3.2397 2,-5.1997 4.3403,-5.1997 1.5,0 2.5,0.6997 2.9199,1.46 l 0.04,0 0,-5.7603 1.76,0 z m -1.7598,8.4599 c 0,-0.2397 -0.02,-0.5195 -0.0801,-0.7598 -0.2598,-1.1001 -1.2202,-2.02 -2.54,-2.02 -1.8198,0 -2.8999,1.6001 -2.8999,3.7202 0,1.98 0.98,3.5996 2.8599,3.5996 1.1802,0 2.2603,-0.7998 2.5801,-2.0996 0.0601,-0.2402 0.0801,-0.48 0.0801,-0.7603 l 0,-1.6801 z" /><path
       inkscape:connector-curvature="0"
       id="path103"
       d="m 218.6582,201.3203 0,1.2803 -4.9399,0 0,-1.2803 4.9399,0 z" /><path
       inkscape:connector-curvature="0"
       id="path105"
       d="m 220.7778,194.0605 c 0.8398,-0.1602 1.9399,-0.2803 3.3398,-0.2803 1.7202,0 2.98,0.3999 3.7803,1.1201 0.7397,0.6401 1.1997,1.6201 1.1997,2.8198 0,1.2202 -0.3599,2.1802 -1.0601,2.8804 -0.9199,0.98 -2.4199,1.48 -4.1196,1.48 -0.52,0 -1,-0.02 -1.4004,-0.1201 l 0,5.3999 -1.7397,0 0,-13.2998 z m 1.7398,6.48 c 0.3804,0.0996 0.8804,0.1396 1.4404,0.1396 2.1196,0 3.3799,-1.04 3.3799,-2.8599 0,-1.7998 -1.2603,-2.6602 -3.1802,-2.6602 -0.7598,0 -1.3398,0.0801 -1.6401,0.1401 l 0,5.2404 z" /><path
       inkscape:connector-curvature="0"
       id="path107"
       d="m 239.1602,204.7202 c 0,1 0.02,1.8804 0.0801,2.6401 l -1.5601,0 -0.1001,-1.5801 -0.04,0 c -0.4399,0.7803 -1.48,1.8003 -3.2002,1.8003 -1.5195,0 -3.3398,-0.8604 -3.3398,-4.2402 l 0,-5.6602 1.7603,0 0,5.3403 c 0,1.8398 0.5796,3.0996 2.1597,3.0996 1.1802,0 2,-0.8198 2.3203,-1.6196 0.0996,-0.2402 0.1597,-0.5601 0.1597,-0.8999 l 0,-5.9204 1.7603,0 0,7.0401 z" /><path
       inkscape:connector-curvature="0"
       id="path109"
       d="m 242.1001,200.7002 c 0,-1.1396 -0.02,-2.1196 -0.0801,-3.02 l 1.54,0 0.0801,1.9004 0.0601,0 c 0.4399,-1.3003 1.52,-2.1201 2.6997,-2.1201 0.1802,0 0.3203,0.02 0.48,0.0601 l 0,1.6396 c -0.1997,-0.02 -0.3799,-0.04 -0.6196,-0.04 -1.2402,0 -2.1201,0.9404 -2.3604,2.2402 -0.0396,0.2598 -0.0596,0.54 -0.0596,0.8398 l 0,5.1602 -1.7603,0 0.0201,-6.6602 z" /><path
       inkscape:connector-curvature="0"
       id="path111"
       d="m 248.6982,200.8403 c 0,-1.2397 -0.02,-2.2397 -0.0801,-3.1602 l 1.5801,0 0.1001,1.6602 0.04,0 c 0.6997,-1.2002 1.8599,-1.8799 3.4199,-1.8799 2.3599,0 4.1201,1.98 4.1201,4.9199 0,3.48 -2.1401,5.2002 -4.3999,5.2002 -1.3003,0 -2.4004,-0.5601 -2.9805,-1.52 l -0.0396,0 0,5.2598 -1.7603,0 0,-10.48 z m 1.7603,2.5801 c 0,0.2397 0.02,0.5 0.0796,0.7197 0.3003,1.2202 1.3804,2.0601 2.6201,2.0601 1.8599,0 2.9399,-1.52 2.9399,-3.7397 0,-1.9399 -1,-3.6001 -2.8599,-3.6001 -1.2002,0 -2.3398,0.8398 -2.6802,2.1602 -0.04,0.2397 -0.0996,0.5 -0.0996,0.7197 l 0,1.6801 z" /><path
       inkscape:connector-curvature="0"
       id="path113"
       d="m 260.0781,193.1602 1.7603,0 0,14.2002 -1.7603,0 0,-14.2002 z" /><path
       inkscape:connector-curvature="0"
       id="path115"
       d="m 265.7578,202.8203 c 0.04,2.3799 1.54,3.3599 3.2998,3.3599 1.2603,0 2.04,-0.2197 2.6802,-0.48 l 0.3198,1.2402 c -0.6196,0.2798 -1.6997,0.6201 -3.2397,0.6201 -2.96,0 -4.7603,-1.98 -4.7603,-4.8804 0,-2.9399 1.7402,-5.2397 4.5601,-5.2397 3.1602,0 3.98,2.7798 3.98,4.5601 0,0.3599 -0.02,0.6396 -0.0596,0.8398 l -6.7803,-0.02 z m 5.1401,-1.2598 c 0.02,-1.1001 -0.46,-2.8604 -2.4199,-2.8604 -1.8003,0 -2.5601,1.6401 -2.7002,2.8604 l 5.1201,0 z" /></g><g
     id="g117"><path
       inkscape:connector-curvature="0"
       id="path119"
       d="m 118.52,248.0605 c 0.8398,-0.1602 1.9399,-0.2803 3.3398,-0.2803 1.7202,0 2.98,0.3999 3.7803,1.1201 0.7397,0.6401 1.1997,1.6201 1.1997,2.8198 0,1.2202 -0.3599,2.1802 -1.0601,2.8804 -0.9199,0.98 -2.4199,1.48 -4.1196,1.48 -0.52,0 -1,-0.02 -1.4004,-0.1201 l 0,5.3999 -1.7397,0 0,-13.2998 z m 1.7398,6.48 c 0.3804,0.0996 0.8804,0.1396 1.4404,0.1396 2.1196,0 3.3799,-1.04 3.3799,-2.8599 0,-1.7998 -1.2603,-2.6602 -3.1802,-2.6602 -0.7598,0 -1.3398,0.0801 -1.6401,0.1401 l 0,5.2404 z" /><path
       inkscape:connector-curvature="0"
       id="path121"
       d="m 136.9023,258.7202 c 0,1 0.02,1.8804 0.0801,2.6401 l -1.5601,0 -0.1001,-1.5801 -0.04,0 c -0.4399,0.7803 -1.48,1.8003 -3.2002,1.8003 -1.5195,0 -3.3398,-0.8604 -3.3398,-4.2402 l 0,-5.6602 1.7603,0 0,5.3403 c 0,1.8398 0.5796,3.0996 2.1597,3.0996 1.1802,0 2,-0.8198 2.3203,-1.6196 0.0996,-0.2402 0.1597,-0.5601 0.1597,-0.8999 l 0,-5.9204 1.7603,0 0,7.0401 z" /><path
       inkscape:connector-curvature="0"
       id="path123"
       d="m 139.8423,254.7002 c 0,-1.1396 -0.02,-2.1196 -0.0801,-3.02 l 1.54,0 0.0801,1.9004 0.0601,0 c 0.4399,-1.3003 1.52,-2.1201 2.6997,-2.1201 0.1802,0 0.3203,0.02 0.48,0.0601 l 0,1.6396 c -0.1997,-0.02 -0.3799,-0.04 -0.6196,-0.04 -1.2402,0 -2.1201,0.9404 -2.3604,2.2402 -0.0396,0.2598 -0.0596,0.54 -0.0596,0.8398 l 0,5.1602 -1.7603,0 0.0201,-6.6602 z" /><path
       inkscape:connector-curvature="0"
       id="path125"
       d="m 146.4404,254.8403 c 0,-1.2397 -0.02,-2.2397 -0.0801,-3.1602 l 1.5801,0 0.1001,1.6602 0.04,0 c 0.6997,-1.2002 1.8599,-1.8799 3.4199,-1.8799 2.3599,0 4.1201,1.98 4.1201,4.9199 0,3.48 -2.1401,5.2002 -4.3999,5.2002 -1.3003,0 -2.4004,-0.5601 -2.9805,-1.52 l -0.0396,0 0,5.2598 -1.7603,0 0,-10.48 z m 1.7603,2.5801 c 0,0.2397 0.02,0.5 0.0796,0.7197 0.3003,1.2202 1.3804,2.0601 2.6201,2.0601 1.8599,0 2.9399,-1.52 2.9399,-3.7397 0,-1.9399 -1,-3.6001 -2.8599,-3.6001 -1.2002,0 -2.3398,0.8398 -2.6802,2.1602 -0.04,0.2397 -0.0996,0.5 -0.0996,0.7197 l 0,1.6801 z" /><path
       inkscape:connector-curvature="0"
       id="path127"
       d="m 157.8203,247.1602 1.7603,0 0,14.2002 -1.7603,0 0,-14.2002 z" /><path
       inkscape:connector-curvature="0"
       id="path129"
       d="m 163.5,256.8203 c 0.04,2.3799 1.54,3.3599 3.2998,3.3599 1.2603,0 2.04,-0.2197 2.6802,-0.48 l 0.3198,1.2402 c -0.6196,0.2798 -1.6997,0.6201 -3.2397,0.6201 -2.96,0 -4.7603,-1.98 -4.7603,-4.8804 0,-2.9399 1.7402,-5.2397 4.5601,-5.2397 3.1602,0 3.98,2.7798 3.98,4.5601 0,0.3599 -0.02,0.6396 -0.0596,0.8398 l -6.7803,-0.02 z m 5.1401,-1.2598 c 0.02,-1.1001 -0.46,-2.8604 -2.4199,-2.8604 -1.8003,0 -2.5601,1.6401 -2.7002,2.8604 l 5.1201,0 z" /></g><g
     id="g131"><path
       inkscape:connector-curvature="0"
       id="path133"
       d="m 440.5195,179.3604 0,-5.7202 -4.2793,-7.7598 2,0 1.8994,3.7202 c 0.5,1.0195 0.9199,1.8398 1.3408,2.7798 l 0.0391,0 c 0.3604,-0.8799 0.8408,-1.7603 1.3604,-2.7798 l 1.9404,-3.7202 1.96,0 -4.5,7.7397 0,5.7402 -1.7608,0 z" /><path
       inkscape:connector-curvature="0"
       id="path135"
       d="m 447.8633,174.8203 c 0.04,2.3799 1.54,3.3599 3.2998,3.3599 1.2598,0 2.04,-0.2197 2.6807,-0.48 l 0.3193,1.2402 c -0.6201,0.2798 -1.7002,0.6201 -3.2402,0.6201 -2.96,0 -4.7598,-1.98 -4.7598,-4.8804 0,-2.9399 1.7402,-5.2397 4.5605,-5.2397 3.1592,0 3.9795,2.7798 3.9795,4.5601 0,0.3599 -0.0195,0.6396 -0.0596,0.8398 l -6.7802,-0.02 z m 5.1396,-1.2598 c 0.0205,-1.1001 -0.46,-2.8604 -2.4199,-2.8604 -1.7998,0 -2.5596,1.6401 -2.6992,2.8604 l 5.1191,0 z" /><path
       inkscape:connector-curvature="0"
       id="path137"
       d="m 456.8828,165.1602 1.7598,0 0,14.2002 -1.7598,0 0,-14.2002 z" /><path
       inkscape:connector-curvature="0"
       id="path139"
       d="m 461.5625,165.1602 1.7598,0 0,14.2002 -1.7598,0 0,-14.2002 z" /><path
       inkscape:connector-curvature="0"
       id="path141"
       d="m 470.1826,179.5806 c -2.6006,0 -4.6406,-1.9204 -4.6406,-4.98 0,-3.2402 2.1406,-5.1401 4.7998,-5.1401 2.7803,0 4.6602,2.02 4.6602,4.96 0,3.6001 -2.5,5.1602 -4.7998,5.1602 l -0.0196,0 z m 0.0596,-1.3203 c 1.6797,0 2.9404,-1.5801 2.9404,-3.7798 0,-1.6401 -0.8203,-3.7002 -2.9004,-3.7002 -2.0596,0 -2.96,1.9199 -2.96,3.7603 0,2.1196 1.2002,3.7197 2.9004,3.7197 l 0.0196,0 z" /><path
       inkscape:connector-curvature="0"
       id="path143"
       d="m 477.7852,169.6802 1.2998,4.9004 c 0.2598,1.0796 0.5205,2.0996 0.7002,3.0996 l 0.0596,0 c 0.2207,-0.98 0.54,-2.02 0.8604,-3.0796 l 1.5801,-4.9204 1.4795,0 1.5,4.8403 c 0.3604,1.1396 0.6406,2.1797 0.8604,3.1597 l 0.0596,0 c 0.1602,-0.98 0.4209,-2 0.7402,-3.1396 l 1.3799,-4.8604 1.7402,0 -3.1201,9.6802 -1.5996,0 -1.4805,-4.6201 c -0.3398,-1.1001 -0.6201,-2.0601 -0.8594,-3.1997 l -0.04,0 c -0.2402,1.1597 -0.54,2.1797 -0.8799,3.2197 l -1.5605,4.6001 -1.5996,0 -2.9199,-9.6802 1.7996,0 z" /><path
       inkscape:connector-curvature="0"
       id="path145"
       d="m 495.8848,173.3203 0,1.2803 -4.9404,0 0,-1.2803 4.9404,0 z" /><path
       inkscape:connector-curvature="0"
       id="path147"
       d="m 498.0039,166.0806 c 0.8809,-0.1802 2.1602,-0.3003 3.3408,-0.3003 1.8594,0 3.0801,0.3599 3.9199,1.1201 0.6602,0.5801 1.0596,1.5 1.0596,2.5601 0,1.7598 -1.1396,2.9399 -2.54,3.4199 l 0,0.0601 c 1.0205,0.3599 1.6406,1.3198 1.9805,2.7197 0.4395,1.8804 0.7598,3.1802 1.0195,3.7002 l -1.7998,0 c -0.2197,-0.3799 -0.5195,-1.54 -0.8799,-3.2202 -0.4004,-1.8599 -1.1396,-2.5596 -2.7197,-2.6196 l -1.6406,0 0,5.8398 -1.7402,0 0,-13.2798 z m 1.7402,6.1196 1.7803,0 c 1.8604,0 3.04,-1.02 3.04,-2.5601 0,-1.7397 -1.2598,-2.5 -3.0996,-2.5 -0.8408,0 -1.4209,0.0801 -1.7207,0.1602 l 0,4.8999 z" /><path
       inkscape:connector-curvature="0"
       id="path149"
       d="m 509.7627,174.8203 c 0.04,2.3799 1.54,3.3599 3.2998,3.3599 1.2598,0 2.04,-0.2197 2.6807,-0.48 l 0.3193,1.2402 c -0.6201,0.2798 -1.7002,0.6201 -3.2402,0.6201 -2.96,0 -4.7598,-1.98 -4.7598,-4.8804 0,-2.9399 1.7402,-5.2397 4.5605,-5.2397 3.1602,0 3.9795,2.7798 3.9795,4.5601 0,0.3599 -0.0195,0.6396 -0.0596,0.8398 l -6.7802,-0.02 z m 5.1396,-1.2598 c 0.0205,-1.1001 -0.46,-2.8604 -2.4199,-2.8604 -1.7998,0 -2.5596,1.6401 -2.6992,2.8604 l 5.1191,0 z" /><path
       inkscape:connector-curvature="0"
       id="path151"
       d="m 527.1426,165.1602 0,11.7002 c 0,0.8599 0.0195,1.8398 0.0801,2.5 l -1.5801,0 -0.0801,-1.6802 -0.04,0 c -0.54,1.0801 -1.7002,1.9004 -3.2803,1.9004 -2.3398,0 -4.1602,-1.98 -4.1602,-4.9204 -0.0195,-3.2397 2,-5.1997 4.3398,-5.1997 1.5,0 2.5,0.6997 2.9199,1.46 l 0.04,0 0,-5.7603 1.7609,0 z m -1.7608,8.4599 c 0,-0.2397 -0.0195,-0.5195 -0.0791,-0.7598 -0.2607,-1.1001 -1.2207,-2.02 -2.54,-2.02 -1.8203,0 -2.9004,1.6001 -2.9004,3.7202 0,1.98 0.9795,3.5996 2.8604,3.5996 1.1797,0 2.2598,-0.7998 2.5801,-2.0996 0.0596,-0.2402 0.0791,-0.48 0.0791,-0.7603 l 0,-1.6801 z" /></g><g
     id="g153"><path
       inkscape:connector-curvature="0"
       id="path155"
       d="m 520.5195,218.3604 0,-5.7202 -4.2793,-7.7598 2,0 1.8994,3.7202 c 0.5,1.0195 0.9199,1.8398 1.3408,2.7798 l 0.0391,0 c 0.3604,-0.8799 0.8408,-1.7603 1.3604,-2.7798 l 1.9404,-3.7202 1.96,0 -4.5,7.7397 0,5.7402 -1.7608,0 z" /><path
       inkscape:connector-curvature="0"
       id="path157"
       d="m 527.8633,213.8203 c 0.04,2.3799 1.54,3.3599 3.2998,3.3599 1.2598,0 2.04,-0.2197 2.6807,-0.48 l 0.3193,1.2402 c -0.6201,0.2798 -1.7002,0.6201 -3.2402,0.6201 -2.96,0 -4.7598,-1.98 -4.7598,-4.8804 0,-2.9399 1.7402,-5.2397 4.5605,-5.2397 3.1592,0 3.9795,2.7798 3.9795,4.5601 0,0.3599 -0.0195,0.6396 -0.0596,0.8398 l -6.7802,-0.02 z m 5.1396,-1.2598 c 0.0205,-1.1001 -0.46,-2.8604 -2.4199,-2.8604 -1.7998,0 -2.5596,1.6401 -2.6992,2.8604 l 5.1191,0 z" /><path
       inkscape:connector-curvature="0"
       id="path159"
       d="m 536.8828,204.1602 1.7598,0 0,14.2002 -1.7598,0 0,-14.2002 z" /><path
       inkscape:connector-curvature="0"
       id="path161"
       d="m 541.5625,204.1602 1.7598,0 0,14.2002 -1.7598,0 0,-14.2002 z" /><path
       inkscape:connector-curvature="0"
       id="path163"
       d="m 550.1826,218.5806 c -2.6006,0 -4.6406,-1.9204 -4.6406,-4.98 0,-3.2402 2.1406,-5.1401 4.7998,-5.1401 2.7803,0 4.6602,2.02 4.6602,4.96 0,3.6001 -2.5,5.1602 -4.7998,5.1602 l -0.0196,0 z m 0.0596,-1.3203 c 1.6797,0 2.9404,-1.5801 2.9404,-3.7798 0,-1.6401 -0.8203,-3.7002 -2.9004,-3.7002 -2.0596,0 -2.96,1.9199 -2.96,3.7603 0,2.1196 1.2002,3.7197 2.9004,3.7197 l 0.0196,0 z" /><path
       inkscape:connector-curvature="0"
       id="path165"
       d="m 557.7852,208.6802 1.2998,4.9004 c 0.2598,1.0796 0.5205,2.0996 0.7002,3.0996 l 0.0596,0 c 0.2207,-0.98 0.54,-2.02 0.8604,-3.0796 l 1.5801,-4.9204 1.4795,0 1.5,4.8403 c 0.3604,1.1396 0.6406,2.1797 0.8604,3.1597 l 0.0596,0 c 0.1602,-0.98 0.4209,-2 0.7402,-3.1396 l 1.3799,-4.8604 1.7402,0 -3.1201,9.6802 -1.5996,0 -1.4805,-4.6201 c -0.3398,-1.1001 -0.6201,-2.0601 -0.8594,-3.1997 l -0.04,0 c -0.2402,1.1597 -0.54,2.1797 -0.8799,3.2197 l -1.5605,4.6001 -1.5996,0 -2.9199,-9.6802 1.7996,0 z" /></g><g
     id="g167"><path
       inkscape:connector-curvature="0"
       id="path169"
       d="m 462.8838,334.1846 c -0.7803,0.2998 -2.3398,0.7393 -4.1602,0.7393 -2.04,0 -3.7197,-0.5195 -5.04,-1.7793 -1.1592,-1.1201 -1.8799,-2.9199 -1.8799,-5.0205 0,-4.0195 2.7803,-6.96 7.2998,-6.96 1.5605,0 2.8008,0.3398 3.3809,0.6201 l -0.4404,1.4199 c -0.7197,-0.3398 -1.6201,-0.5801 -2.9795,-0.5801 -3.2803,0 -5.4209,2.04 -5.4209,5.4199 0,3.4199 2.04,5.4404 5.2002,5.4404 1.1406,0 1.9199,-0.1602 2.3203,-0.3604 l 0,-4.0195 -2.7197,0 0,-1.4004 4.4395,0 0,6.4806 z" /><path
       inkscape:connector-curvature="0"
       id="path171"
       d="m 465.5234,328.124 c 0,-1.1396 -0.0205,-2.1201 -0.0801,-3.0195 l 1.54,0 0.0791,1.8994 0.0605,0 c 0.4395,-1.2998 1.5195,-2.1201 2.7002,-2.1201 0.1797,0 0.3193,0.0205 0.4795,0.0605 l 0,1.6396 c -0.2002,-0.0195 -0.3799,-0.04 -0.6201,-0.04 -1.2393,0 -2.1201,0.9404 -2.3594,2.2402 -0.04,0.2598 -0.0605,0.54 -0.0605,0.8398 l 0,5.1602 -1.7598,0 0.0206,-6.6601 z" /><path
       inkscape:connector-curvature="0"
       id="path173"
       d="m 472.9258,330.2441 c 0.04,2.3799 1.54,3.3604 3.2998,3.3604 1.2598,0 2.04,-0.2207 2.6807,-0.4805 l 0.3193,1.2402 c -0.6201,0.2803 -1.7002,0.6201 -3.2402,0.6201 -2.96,0 -4.7598,-1.9805 -4.7598,-4.8799 0,-2.9404 1.7402,-5.2402 4.5605,-5.2402 3.1592,0 3.9795,2.7803 3.9795,4.5596 0,0.3604 -0.0195,0.6406 -0.0596,0.8408 l -6.7802,-0.0205 z m 5.1396,-1.2597 c 0.0205,-1.1006 -0.46,-2.8604 -2.4199,-2.8604 -1.7998,0 -2.5596,1.6406 -2.6992,2.8604 l 5.1191,0 z" /><path
       inkscape:connector-curvature="0"
       id="path175"
       d="m 482.9453,330.2441 c 0.04,2.3799 1.54,3.3604 3.2998,3.3604 1.2598,0 2.04,-0.2207 2.6807,-0.4805 l 0.3193,1.2402 c -0.6201,0.2803 -1.7002,0.6201 -3.2402,0.6201 -2.96,0 -4.7598,-1.9805 -4.7598,-4.8799 0,-2.9404 1.7402,-5.2402 4.5605,-5.2402 3.1592,0 3.9795,2.7803 3.9795,4.5596 0,0.3604 -0.0195,0.6406 -0.0596,0.8408 l -6.7802,-0.0205 z m 5.1397,-1.2597 c 0.0205,-1.1006 -0.46,-2.8604 -2.4199,-2.8604 -1.7998,0 -2.5596,1.6406 -2.6992,2.8604 l 5.1191,0 z" /><path
       inkscape:connector-curvature="0"
       id="path177"
       d="m 491.9648,327.7246 c 0,-1.0205 -0.0195,-1.8203 -0.0801,-2.6201 l 1.5605,0 0.0996,1.5801 0.04,0 c 0.4795,-0.9004 1.5996,-1.8008 3.2002,-1.8008 1.3398,0 3.4199,0.8008 3.4199,4.1201 l 0,5.7803 -1.7598,0 0,-5.5801 c 0,-1.5596 -0.5801,-2.8799 -2.2402,-2.8799 -1.1406,0 -2.04,0.8203 -2.3604,1.7998 -0.0801,0.2197 -0.1201,0.54 -0.1201,0.8203 l 0,5.8398 -1.7598,0 0,-7.0595 z" /><path
       inkscape:connector-curvature="0"
       id="path179"
       d="m 507.1445,328.7441 0,1.2803 -4.9404,0 0,-1.2803 4.9404,0 z" /><path
       inkscape:connector-curvature="0"
       id="path181"
       d="m 512.2637,334.7842 0,-5.7197 -4.2793,-7.7607 2,0 1.8994,3.7207 c 0.5,1.0195 0.9199,1.8398 1.3408,2.7793 l 0.0391,0 c 0.3604,-0.8799 0.8408,-1.7598 1.3604,-2.7793 l 1.9404,-3.7207 1.96,0 -4.5,7.7402 0,5.7402 -1.7608,0 z" /><path
       inkscape:connector-curvature="0"
       id="path183"
       d="m 519.6074,330.2441 c 0.04,2.3799 1.54,3.3604 3.2998,3.3604 1.2598,0 2.04,-0.2207 2.6807,-0.4805 l 0.3193,1.2402 c -0.6201,0.2803 -1.7002,0.6201 -3.2402,0.6201 -2.96,0 -4.7598,-1.9805 -4.7598,-4.8799 0,-2.9404 1.7402,-5.2402 4.5605,-5.2402 3.1592,0 3.9795,2.7803 3.9795,4.5596 0,0.3604 -0.0195,0.6406 -0.0596,0.8408 l -6.7802,-0.0205 z m 5.1397,-1.2597 c 0.0205,-1.1006 -0.46,-2.8604 -2.4199,-2.8604 -1.7998,0 -2.5596,1.6406 -2.6992,2.8604 l 5.1191,0 z" /><path
       inkscape:connector-curvature="0"
       id="path185"
       d="m 528.627,320.584 1.7598,0 0,14.2002 -1.7598,0 0,-14.2002 z" /><path
       inkscape:connector-curvature="0"
       id="path187"
       d="m 533.3066,320.584 1.7598,0 0,14.2002 -1.7598,0 0,-14.2002 z" /><path
       inkscape:connector-curvature="0"
       id="path189"
       d="m 541.9268,335.0039 c -2.6006,0 -4.6406,-1.9199 -4.6406,-4.9795 0,-3.2402 2.1406,-5.1406 4.7998,-5.1406 2.7803,0 4.6602,2.0205 4.6602,4.96 0,3.6006 -2.5,5.1602 -4.7998,5.1602 l -0.0196,0 z m 0.0595,-1.3193 c 1.6797,0 2.9404,-1.5801 2.9404,-3.7803 0,-1.6396 -0.8203,-3.7002 -2.9004,-3.7002 -2.0596,0 -2.96,1.9199 -2.96,3.7598 0,2.1201 1.2002,3.7207 2.9004,3.7207 l 0.0196,0 z" /><path
       inkscape:connector-curvature="0"
       id="path191"
       d="m 549.5293,325.1045 1.2998,4.8994 c 0.2598,1.0801 0.5205,2.1006 0.7002,3.1006 l 0.0596,0 c 0.2207,-0.9805 0.54,-2.0205 0.8604,-3.0801 l 1.5801,-4.9199 1.4795,0 1.5,4.8398 c 0.3604,1.1396 0.6406,2.1797 0.8604,3.1602 l 0.0596,0 c 0.1602,-0.9805 0.4209,-2 0.7402,-3.1406 l 1.3799,-4.8594 1.7402,0 -3.1201,9.6797 -1.5996,0 -1.4805,-4.6201 c -0.3398,-1.0996 -0.6201,-2.0596 -0.8594,-3.2002 l -0.04,0 c -0.2402,1.1602 -0.54,2.1807 -0.8799,3.2207 l -1.5605,4.5996 -1.5996,0 -2.9199,-9.6797 1.7996,0 z" /></g><g
     id="g193"><path
       inkscape:connector-curvature="0"
       id="path195"
       d="m 538.0508,456.1729 c -0.7803,0.2998 -2.3398,0.7393 -4.1602,0.7393 -2.04,0 -3.7197,-0.5195 -5.04,-1.7793 -1.1592,-1.1201 -1.8799,-2.9199 -1.8799,-5.0205 0,-4.0195 2.7803,-6.96 7.2998,-6.96 1.5605,0 2.8008,0.3398 3.3809,0.6201 l -0.4404,1.4199 c -0.7197,-0.3398 -1.6201,-0.5801 -2.9795,-0.5801 -3.2803,0 -5.4209,2.04 -5.4209,5.4199 0,3.4199 2.04,5.4404 5.2002,5.4404 1.1406,0 1.9199,-0.1602 2.3203,-0.3604 l 0,-4.0195 -2.7197,0 0,-1.4004 4.4395,0 0,6.4806 z" /><path
       inkscape:connector-curvature="0"
       id="path197"
       d="m 540.6904,450.1123 c 0,-1.1396 -0.0205,-2.1201 -0.0801,-3.0195 l 1.54,0 0.0791,1.8994 0.0605,0 c 0.4395,-1.2998 1.5195,-2.1201 2.7002,-2.1201 0.1797,0 0.3193,0.0205 0.4795,0.0605 l 0,1.6396 c -0.2002,-0.0195 -0.3799,-0.04 -0.6201,-0.04 -1.2393,0 -2.1201,0.9404 -2.3594,2.2402 -0.04,0.2598 -0.0605,0.54 -0.0605,0.8398 l 0,5.1602 -1.7598,0 0.0206,-6.6601 z" /><path
       inkscape:connector-curvature="0"
       id="path199"
       d="m 548.0928,452.2324 c 0.04,2.3799 1.54,3.3604 3.2998,3.3604 1.2598,0 2.04,-0.2207 2.6807,-0.4805 l 0.3193,1.2402 c -0.6201,0.2803 -1.7002,0.6201 -3.2402,0.6201 -2.96,0 -4.7598,-1.9805 -4.7598,-4.8799 0,-2.9404 1.7402,-5.2402 4.5605,-5.2402 3.1592,0 3.9795,2.7803 3.9795,4.5596 0,0.3604 -0.0195,0.6406 -0.0596,0.8408 l -6.7802,-0.0205 z m 5.1396,-1.2597 c 0.0205,-1.1006 -0.46,-2.8604 -2.4199,-2.8604 -1.7998,0 -2.5596,1.6406 -2.6992,2.8604 l 5.1191,0 z" /><path
       inkscape:connector-curvature="0"
       id="path201"
       d="m 558.1123,452.2324 c 0.04,2.3799 1.54,3.3604 3.2998,3.3604 1.2598,0 2.04,-0.2207 2.6807,-0.4805 l 0.3193,1.2402 c -0.6201,0.2803 -1.7002,0.6201 -3.2402,0.6201 -2.96,0 -4.7598,-1.9805 -4.7598,-4.8799 0,-2.9404 1.7402,-5.2402 4.5605,-5.2402 3.1592,0 3.9795,2.7803 3.9795,4.5596 0,0.3604 -0.0195,0.6406 -0.0596,0.8408 l -6.7802,-0.0205 z m 5.1397,-1.2597 c 0.0205,-1.1006 -0.46,-2.8604 -2.4199,-2.8604 -1.7998,0 -2.5596,1.6406 -2.6992,2.8604 l 5.1191,0 z" /><path
       inkscape:connector-curvature="0"
       id="path203"
       d="m 567.1318,449.7129 c 0,-1.0205 -0.0195,-1.8203 -0.0801,-2.6201 l 1.5605,0 0.0996,1.5801 0.04,0 c 0.4795,-0.9004 1.5996,-1.8008 3.2002,-1.8008 1.3398,0 3.4199,0.8008 3.4199,4.1201 l 0,5.7803 -1.7598,0 0,-5.5801 c 0,-1.5596 -0.5801,-2.8799 -2.2402,-2.8799 -1.1406,0 -2.04,0.8203 -2.3604,1.7998 -0.0801,0.2197 -0.1201,0.54 -0.1201,0.8203 l 0,5.8398 -1.7598,0 0,-7.0595 z" /></g><g
     id="g205"><path
       inkscape:connector-curvature="0"
       id="path207"
       d="m 249.7812,504.1611 c 0.7598,-0.1797 1.98,-0.2998 3.1802,-0.2998 1.7397,0 2.8599,0.2998 3.6797,0.9805 0.7002,0.5195 1.1401,1.3193 1.1401,2.3799 0,1.3193 -0.8799,2.46 -2.2803,2.96 l 0,0.0596 c 1.2803,0.2998 2.7803,1.3604 2.7803,3.3604 0,1.1602 -0.46,2.04 -1.1602,2.7002 -0.9199,0.8594 -2.4399,1.2598 -4.6396,1.2598 -1.2002,0 -2.1201,-0.0801 -2.7002,-0.1602 l 0,-13.2404 z m 1.7398,5.5205 1.5801,0 c 1.8203,0 2.8999,-0.9805 2.8999,-2.2803 0,-1.5596 -1.1797,-2.2002 -2.9399,-2.2002 -0.7998,0 -1.2598,0.0605 -1.54,0.1201 l 0,4.3604 z m 0,6.4395 c 0.3604,0.0605 0.8403,0.0801 1.4604,0.0801 1.7998,0 3.46,-0.6602 3.46,-2.6201 0,-1.8193 -1.5801,-2.5996 -3.48,-2.5996 l -1.4404,0 0,5.1396 z" /><path
       inkscape:connector-curvature="0"
       id="path209"
       d="m 260.5806,503.2412 1.7603,0 0,14.2002 -1.7603,0 0,-14.2002 z" /><path
       inkscape:connector-curvature="0"
       id="path211"
       d="m 273.3604,514.8018 c 0,1 0.02,1.8799 0.0801,2.6396 l -1.5601,0 -0.1001,-1.5801 -0.04,0 c -0.4399,0.7803 -1.48,1.7998 -3.2002,1.7998 -1.5195,0 -3.3398,-0.8594 -3.3398,-4.2393 l 0,-5.6602 1.7603,0 0,5.3398 c 0,1.8398 0.5796,3.0996 2.1597,3.0996 1.1802,0 2,-0.8193 2.3203,-1.6201 0.0996,-0.2393 0.1597,-0.5596 0.1597,-0.8994 l 0,-5.9199 1.7603,0 0,7.0402 z" /><path
       inkscape:connector-curvature="0"
       id="path213"
       d="m 277.2803,512.9014 c 0.04,2.3799 1.54,3.3604 3.2998,3.3604 1.2603,0 2.04,-0.2207 2.6802,-0.4805 l 0.3198,1.2402 c -0.6196,0.2803 -1.6997,0.6201 -3.2397,0.6201 -2.96,0 -4.7603,-1.9805 -4.7603,-4.8799 0,-2.9404 1.7402,-5.2402 4.5601,-5.2402 3.1602,0 3.98,2.7803 3.98,4.5596 0,0.3604 -0.02,0.6406 -0.0596,0.8408 l -6.7803,-0.0205 z m 5.1401,-1.2598 c 0.02,-1.1006 -0.46,-2.8604 -2.4199,-2.8604 -1.8003,0 -2.5601,1.6406 -2.7002,2.8604 l 5.1201,0 z" /><path
       inkscape:connector-curvature="0"
       id="path215"
       d="m 290.3804,511.4014 0,1.2803 -4.9399,0 0,-1.2803 4.9399,0 z" /><path
       inkscape:connector-curvature="0"
       id="path217"
       d="m 302.7793,516.8418 c -0.7793,0.2998 -2.3394,0.7393 -4.1592,0.7393 -2.04,0 -3.7202,-0.5195 -5.04,-1.7793 -1.1602,-1.1201 -1.8799,-2.9199 -1.8799,-5.0205 0,-4.0195 2.7798,-6.96 7.2998,-6.96 1.5601,0 2.7998,0.3398 3.3799,0.6201 l -0.4404,1.4199 c -0.7197,-0.3398 -1.6196,-0.5801 -2.9795,-0.5801 -3.2798,0 -5.4199,2.04 -5.4199,5.4199 0,3.4199 2.04,5.4404 5.1997,5.4404 1.1401,0 1.9204,-0.1602 2.3208,-0.3604 l 0,-4.0195 -2.7207,0 0,-1.4004 4.4395,0 0,6.4806 z" /><path
       inkscape:connector-curvature="0"
       id="path219"
       d="m 305.4189,510.7812 c 0,-1.1396 -0.0205,-2.1201 -0.0801,-3.0195 l 1.54,0 0.0801,1.8994 0.0605,0 c 0.4395,-1.2998 1.5195,-2.1201 2.6992,-2.1201 0.1797,0 0.3203,0.0205 0.4805,0.0605 l 0,1.6396 c -0.2002,-0.0195 -0.3809,-0.04 -0.6201,-0.04 -1.2402,0 -2.1201,0.9404 -2.3604,2.2402 -0.04,0.2598 -0.0596,0.54 -0.0596,0.8398 l 0,5.1602 -1.7607,0 0.0206,-6.6601 z" /><path
       inkscape:connector-curvature="0"
       id="path221"
       d="m 312.8223,512.9014 c 0.0391,2.3799 1.5391,3.3604 3.2988,3.3604 1.2607,0 2.041,-0.2207 2.6807,-0.4805 l 0.3203,1.2402 c -0.6201,0.2803 -1.7002,0.6201 -3.2402,0.6201 -2.96,0 -4.7607,-1.9805 -4.7607,-4.8799 0,-2.9404 1.7402,-5.2402 4.5605,-5.2402 3.1602,0 3.9805,2.7803 3.9805,4.5596 0,0.3604 -0.0205,0.6406 -0.0605,0.8408 l -6.7794,-0.0205 z m 5.1396,-1.2598 c 0.0195,-1.1006 -0.46,-2.8604 -2.4199,-2.8604 -1.7998,0 -2.5596,1.6406 -2.7002,2.8604 l 5.1201,0 z" /><path
       inkscape:connector-curvature="0"
       id="path223"
       d="m 322.8418,512.9014 c 0.04,2.3799 1.54,3.3604 3.2998,3.3604 1.2598,0 2.04,-0.2207 2.6807,-0.4805 l 0.3193,1.2402 c -0.6201,0.2803 -1.7002,0.6201 -3.2402,0.6201 -2.96,0 -4.7598,-1.9805 -4.7598,-4.8799 0,-2.9404 1.7402,-5.2402 4.5605,-5.2402 3.1602,0 3.9795,2.7803 3.9795,4.5596 0,0.3604 -0.0195,0.6406 -0.0596,0.8408 l -6.7802,-0.0205 z m 5.1396,-1.2598 c 0.0205,-1.1006 -0.46,-2.8604 -2.4199,-2.8604 -1.7998,0 -2.5596,1.6406 -2.6992,2.8604 l 5.1191,0 z" /><path
       inkscape:connector-curvature="0"
       id="path225"
       d="m 331.8613,510.3818 c 0,-1.0205 -0.0195,-1.8203 -0.0801,-2.6201 l 1.5605,0 0.0996,1.5801 0.04,0 c 0.4795,-0.9004 1.5996,-1.8008 3.2002,-1.8008 1.3398,0 3.4199,0.8008 3.4199,4.1201 l 0,5.7803 -1.7598,0 0,-5.5801 c 0,-1.5596 -0.5801,-2.8799 -2.2402,-2.8799 -1.1406,0 -2.04,0.8203 -2.3604,1.7998 -0.0801,0.2197 -0.1201,0.54 -0.1201,0.8203 l 0,5.8398 -1.7598,0 0,-7.0595 z" /></g><g
     id="g227"><path
       inkscape:connector-curvature="0"
       id="path229"
       d="m 227.6138,463.6631 c 0.7598,-0.1797 1.98,-0.2998 3.1802,-0.2998 1.7397,0 2.8599,0.2998 3.6797,0.9805 0.7002,0.5195 1.1401,1.3193 1.1401,2.3799 0,1.3193 -0.8799,2.46 -2.2803,2.96 l 0,0.0596 c 1.2803,0.2998 2.7803,1.3604 2.7803,3.3604 0,1.1602 -0.46,2.04 -1.1602,2.7002 -0.9199,0.8594 -2.4399,1.2598 -4.6396,1.2598 -1.2002,0 -2.1201,-0.0801 -2.7002,-0.1602 l 0,-13.2404 z m 1.7397,5.5205 1.5801,0 c 1.8203,0 2.8999,-0.9805 2.8999,-2.2803 0,-1.5596 -1.1797,-2.2002 -2.9399,-2.2002 -0.7998,0 -1.2598,0.0605 -1.54,0.1201 l 0,4.3604 z m 0,6.4394 c 0.3604,0.0605 0.8403,0.0801 1.4604,0.0801 1.7998,0 3.46,-0.6602 3.46,-2.6201 0,-1.8193 -1.5801,-2.5996 -3.48,-2.5996 l -1.4404,0 0,5.1396 z" /><path
       inkscape:connector-curvature="0"
       id="path231"
       d="m 238.4131,462.7432 1.7603,0 0,14.2002 -1.7603,0 0,-14.2002 z" /><path
       inkscape:connector-curvature="0"
       id="path233"
       d="m 251.1929,474.3037 c 0,1 0.02,1.8799 0.0801,2.6396 l -1.5601,0 -0.1001,-1.5801 -0.04,0 c -0.4399,0.7803 -1.48,1.7998 -3.2002,1.7998 -1.5195,0 -3.3398,-0.8594 -3.3398,-4.2393 l 0,-5.6602 1.7603,0 0,5.3398 c 0,1.8398 0.5796,3.0996 2.1597,3.0996 1.1802,0 2,-0.8193 2.3203,-1.6201 0.0996,-0.2393 0.1597,-0.5596 0.1597,-0.8994 l 0,-5.9199 1.7603,0 0,7.0402 z" /><path
       inkscape:connector-curvature="0"
       id="path235"
       d="m 255.1128,472.4033 c 0.04,2.3799 1.54,3.3604 3.2998,3.3604 1.2603,0 2.04,-0.2207 2.6802,-0.4805 l 0.3198,1.2402 c -0.6196,0.2803 -1.6997,0.6201 -3.2397,0.6201 -2.96,0 -4.7603,-1.9805 -4.7603,-4.8799 0,-2.9404 1.7402,-5.2402 4.5601,-5.2402 3.1602,0 3.98,2.7803 3.98,4.5596 0,0.3604 -0.02,0.6406 -0.0596,0.8408 l -6.7803,-0.0205 z m 5.1401,-1.2597 c 0.02,-1.1006 -0.46,-2.8604 -2.4199,-2.8604 -1.8003,0 -2.5601,1.6406 -2.7002,2.8604 l 5.1201,0 z" /></g><g
     id="g237"><path
       inkscape:connector-curvature="0"
       id="path239"
       d="m 105.6191,473.6426 c 0.8398,-0.1602 1.9399,-0.2803 3.3398,-0.2803 1.7202,0 2.98,0.4004 3.7803,1.1201 0.7397,0.6396 1.1997,1.6201 1.1997,2.8203 0,1.2197 -0.3599,2.1797 -1.0601,2.8799 -0.9199,0.9795 -2.4199,1.4795 -4.1196,1.4795 -0.52,0 -1,-0.0195 -1.4004,-0.1201 l 0,5.4004 -1.7397,0 0,-13.2998 z m 1.7398,6.4795 c 0.3804,0.1006 0.8804,0.1406 1.4404,0.1406 2.1196,0 3.3799,-1.04 3.3799,-2.8604 0,-1.7998 -1.2603,-2.6602 -3.1802,-2.6602 -0.7598,0 -1.3398,0.0801 -1.6401,0.1406 l 0,5.2394 z" /><path
       inkscape:connector-curvature="0"
       id="path241"
       d="m 124.0015,484.3027 c 0,1 0.02,1.8799 0.0801,2.6396 l -1.5601,0 -0.1001,-1.5801 -0.04,0 c -0.4399,0.7803 -1.48,1.7998 -3.2002,1.7998 -1.5195,0 -3.3398,-0.8594 -3.3398,-4.2393 l 0,-5.6602 1.7603,0 0,5.3398 c 0,1.8398 0.5796,3.0996 2.1597,3.0996 1.1802,0 2,-0.8193 2.3203,-1.6201 0.0996,-0.2393 0.1597,-0.5596 0.1597,-0.8994 l 0,-5.9199 1.7603,0 0,7.0402 z" /><path
       inkscape:connector-curvature="0"
       id="path243"
       d="m 126.9414,480.2822 c 0,-1.1396 -0.02,-2.1201 -0.0801,-3.0195 l 1.54,0 0.0801,1.8994 0.0601,0 c 0.4399,-1.2998 1.52,-2.1201 2.6997,-2.1201 0.1802,0 0.3203,0.0205 0.48,0.0605 l 0,1.6396 c -0.1997,-0.0195 -0.3799,-0.04 -0.6196,-0.04 -1.2402,0 -2.1201,0.9404 -2.3604,2.2402 -0.0396,0.2598 -0.0596,0.54 -0.0596,0.8398 l 0,5.1602 -1.7603,0 0.0201,-6.6601 z" /><path
       inkscape:connector-curvature="0"
       id="path245"
       d="m 133.5396,480.4229 c 0,-1.2402 -0.02,-2.2402 -0.0801,-3.1602 l 1.5801,0 0.1001,1.6602 0.04,0 c 0.6997,-1.2002 1.8599,-1.8809 3.4199,-1.8809 2.3599,0 4.1201,1.9805 4.1201,4.9199 0,3.4805 -2.1401,5.2002 -4.3999,5.2002 -1.3003,0 -2.4004,-0.5596 -2.9805,-1.5195 l -0.0396,0 0,5.2598 -1.7603,0 0,-10.4795 z m 1.7602,2.5791 c 0,0.2402 0.02,0.5 0.0796,0.7207 0.3003,1.2197 1.3804,2.0596 2.6201,2.0596 1.8599,0 2.9399,-1.5195 2.9399,-3.7402 0,-1.9395 -1,-3.5996 -2.8599,-3.5996 -1.2002,0 -2.3398,0.8398 -2.6802,2.1602 -0.04,0.2402 -0.0996,0.5 -0.0996,0.7197 l 0,1.6796 z" /><path
       inkscape:connector-curvature="0"
       id="path247"
       d="m 144.9194,472.7422 1.7603,0 0,14.2002 -1.7603,0 0,-14.2002 z" /><path
       inkscape:connector-curvature="0"
       id="path249"
       d="m 150.5991,482.4023 c 0.04,2.3799 1.54,3.3604 3.2998,3.3604 1.2603,0 2.04,-0.2207 2.6802,-0.4805 l 0.3198,1.2402 c -0.6196,0.2803 -1.6997,0.6201 -3.2397,0.6201 -2.96,0 -4.7603,-1.9805 -4.7603,-4.8799 0,-2.9404 1.7402,-5.2402 4.5601,-5.2402 3.1602,0 3.98,2.7803 3.98,4.5596 0,0.3604 -0.02,0.6406 -0.0596,0.8408 l -6.7803,-0.0205 z m 5.1402,-1.2597 c 0.02,-1.1006 -0.46,-2.8604 -2.4199,-2.8604 -1.8003,0 -2.5601,1.6406 -2.7002,2.8604 l 5.1201,0 z" /><path
       inkscape:connector-curvature="0"
       id="path251"
       d="m 163.6992,480.9023 0,1.2803 -4.9399,0 0,-1.2803 4.9399,0 z" /><path
       inkscape:connector-curvature="0"
       id="path253"
       d="m 165.8188,473.6621 c 0.7598,-0.1797 1.98,-0.2998 3.1802,-0.2998 1.7397,0 2.8599,0.2998 3.6797,0.9805 0.7002,0.5195 1.1401,1.3193 1.1401,2.3799 0,1.3193 -0.8799,2.46 -2.2803,2.96 l 0,0.0596 c 1.2803,0.2998 2.7803,1.3604 2.7803,3.3604 0,1.1602 -0.46,2.04 -1.1602,2.7002 -0.9199,0.8594 -2.4399,1.2598 -4.6396,1.2598 -1.2002,0 -2.1201,-0.0801 -2.7002,-0.1602 l 0,-13.2404 z m 1.7398,5.5205 1.5801,0 c 1.8203,0 2.8999,-0.9805 2.8999,-2.2803 0,-1.5596 -1.1797,-2.2002 -2.9399,-2.2002 -0.7998,0 -1.2598,0.0605 -1.54,0.1201 l 0,4.3604 z m 0,6.4395 c 0.3604,0.0605 0.8403,0.0801 1.4604,0.0801 1.7998,0 3.46,-0.6602 3.46,-2.6201 0,-1.8193 -1.5801,-2.5996 -3.48,-2.5996 l -1.4404,0 0,5.1396 z" /><path
       inkscape:connector-curvature="0"
       id="path255"
       d="m 176.6182,472.7422 1.7603,0 0,14.2002 -1.7603,0 0,-14.2002 z" /><path
       inkscape:connector-curvature="0"
       id="path257"
       d="m 189.3979,484.3027 c 0,1 0.02,1.8799 0.0801,2.6396 l -1.5601,0 -0.1001,-1.5801 -0.04,0 c -0.4399,0.7803 -1.48,1.7998 -3.2002,1.7998 -1.5195,0 -3.3398,-0.8594 -3.3398,-4.2393 l 0,-5.6602 1.7603,0 0,5.3398 c 0,1.8398 0.5796,3.0996 2.1597,3.0996 1.1802,0 2,-0.8193 2.3203,-1.6201 0.0996,-0.2393 0.1597,-0.5596 0.1597,-0.8994 l 0,-5.9199 1.7603,0 0,7.0402 z" /><path
       inkscape:connector-curvature="0"
       id="path259"
       d="m 193.3179,482.4023 c 0.04,2.3799 1.54,3.3604 3.2998,3.3604 1.2603,0 2.04,-0.2207 2.6802,-0.4805 l 0.3198,1.2402 c -0.6196,0.2803 -1.6997,0.6201 -3.2397,0.6201 -2.96,0 -4.7603,-1.9805 -4.7603,-4.8799 0,-2.9404 1.7402,-5.2402 4.5601,-5.2402 3.1602,0 3.98,2.7803 3.98,4.5596 0,0.3604 -0.02,0.6406 -0.0596,0.8408 l -6.7803,-0.0205 z m 5.1401,-1.2597 c 0.02,-1.1006 -0.46,-2.8604 -2.4199,-2.8604 -1.8003,0 -2.5601,1.6406 -2.7002,2.8604 l 5.1201,0 z" /></g><g
     id="g261"><line
       x1="155"
       y1="267.36041"
       x2="191"
       y2="299.36041"
       id="line263"
       style="fill:none;stroke:#000000" /><line
       x1="229"
       y1="218.3604"
       x2="258"
       y2="264.36041"
       id="line265"
       style="fill:none;stroke:#000000" /><line
       x1="328"
       y1="209.3604"
       x2="344"
       y2="246.3604"
       id="line267"
       style="fill:none;stroke:#000000" /><line
       x1="480"
       y1="189.3604"
       x2="490"
       y2="264.36041"
       id="line269"
       style="fill:none;stroke:#000000" /><line
       x1="545"
       y1="229.3604"
       x2="567"
       y2="298.36041"
       id="line271"
       style="fill:none;stroke:#000000" /><line
       x1="242.5938"
       y1="452.94431"
       x2="254.59331"
       y2="407.94629"
       id="line273"
       style="fill:none;stroke:#000000" /><line
       x1="307.09079"
       y1="487.44241"
       x2="364.08789"
       y2="421.44629"
       id="line275"
       style="fill:none;stroke:#000000" /><line
       x1="532.66803"
       y1="340.3613"
       x2="559.0752"
       y2="355.51071"
       id="line277"
       style="fill:none;stroke:#000000" /><line
       x1="507.33401"
       y1="399.02731"
       x2="542.5791"
       y2="434.94531"
       id="line279"
       style="fill:none;stroke:#000000" /><line
       x1="149"
       y1="463.36041"
       x2="151"
       y2="404.36041"
       id="line281"
       style="fill:none;stroke:#000000" /></g><g
     id="Chroma_Labels"><g
       id="g284"><path
         inkscape:connector-curvature="0"
         id="path286"
         d="m 348.374,349.248 c -2.54,0 -4.2803,-2.3809 -4.3193,-6.6807 0,-4.3799 1.8994,-6.7607 4.5391,-6.7607 2.7207,0 4.3008,2.4414 4.3008,6.5801 0,4.4199 -1.6602,6.8613 -4.5,6.8613 l -0.0206,0 z m 0.0801,-1.3613 c 1.7803,0 2.6396,-2.0996 2.6396,-5.4199 0,-3.1992 -0.7998,-5.2988 -2.6396,-5.2988 -1.6006,0 -2.6396,2.0391 -2.6396,5.2988 -0.041,3.3809 1,5.4199 2.6191,5.4199 l 0.0205,0 z" /></g><g
       id="g288"><path
         inkscape:connector-curvature="0"
         id="path290"
         d="m 312.9004,359.0273 0,-1.0801 1.3789,-1.3398 c 3.3203,-3.1602 4.8408,-4.8398 4.8408,-6.8008 0,-1.3193 -0.6201,-2.5391 -2.5596,-2.5391 -1.1807,0 -2.1602,0.5996 -2.7607,1.0996 l -0.5596,-1.2402 c 0.8799,-0.7402 2.1797,-1.3203 3.6797,-1.3203 2.7803,0 3.96,1.9209 3.96,3.7812 0,2.3994 -1.7393,4.3398 -4.4795,6.9795 l -1.0205,0.96 0,0.04 5.8203,0 0,1.46 -8.2998,0 z" /></g><g
       id="g292"><path
         inkscape:connector-curvature="0"
         id="path294"
         d="m 258.3403,337.0273 0,-3.54 -6.04,0 0,-1.1396 5.8003,-8.3203 1.8999,0 0,8.0996 1.8198,0 0,1.3604 -1.8198,0 0,3.54 -1.6602,0 z m 0,-4.9003 0,-4.3594 c 0,-0.6807 0.02,-1.3604 0.0601,-2.04 l -0.0601,0 c -0.3999,0.7598 -0.7197,1.3193 -1.0801,1.9395 l -3.1797,4.4199 0,0.04 4.2598,0 z" /></g><g
       id="g296"><path
         inkscape:connector-curvature="0"
         id="path298"
         d="m 212.3208,331.9131 c -0.3599,-0.0195 -0.8198,0.0205 -1.3198,0.1006 -2.7798,0.4395 -4.2202,2.46 -4.52,4.6201 l 0.04,0 c 0.6201,-0.8408 1.7202,-1.5205 3.1602,-1.5205 2.2998,0 3.9199,1.6797 3.9199,4.2002 0,2.3994 -1.6201,4.5996 -4.3403,4.5996 -2.7598,0 -4.5796,-2.1602 -4.5796,-5.54 0,-2.5596 0.8999,-4.5801 2.1997,-5.8799 1.0801,-1.0596 2.52,-1.7197 4.1602,-1.9199 0.52,-0.0801 0.96,-0.0996 1.2798,-0.0996 l 0,1.4394 z m -3.02,10.6406 c 1.5,0 2.52,-1.2607 2.52,-3.1201 0,-1.8604 -1.0601,-2.9805 -2.6797,-2.9805 -1.0601,0 -2.0601,0.6406 -2.54,1.6006 -0.1001,0.1992 -0.1802,0.4395 -0.1802,0.7598 0.02,2.1396 1.02,3.7402 2.8599,3.7402 l 0.02,0 z" /></g><g
       id="g300"><path
         inkscape:connector-curvature="0"
         id="path302"
         d="m 159.2603,337.4746 c 2.52,0 3.8003,1.5596 3.8003,3.2002 0,1.0996 -0.5601,2.2998 -2.1602,3.0391 l 0,0.0605 c 1.6201,0.6396 2.6201,1.7998 2.6201,3.3604 0,2.2793 -1.9399,3.7793 -4.4199,3.7793 -2.7202,0 -4.3604,-1.5996 -4.3604,-3.5 0,-1.6396 0.9805,-2.8193 2.5601,-3.5 l 0,-0.0596 c -1.46,-0.6797 -2.0796,-1.7998 -2.0796,-2.9199 0,-2.0605 1.7397,-3.46 4.0195,-3.46 l 0.0201,0 z m -0.0997,12.1602 c 1.5796,0 2.5996,-0.9805 2.5996,-2.3203 0,-1.5605 -1.0996,-2.3398 -2.8599,-2.8398 -1.52,0.4395 -2.3398,1.46 -2.3398,2.7002 -0.0601,1.2998 0.9399,2.46 2.5801,2.46 l 0.02,0 z m 0.0401,-10.9004 c -1.4604,0 -2.2603,0.96 -2.2603,2.0801 -0.02,1.2998 0.98,2 2.48,2.3994 1.1201,-0.3799 1.98,-1.1797 1.98,-2.3594 0,-1.04 -0.6201,-2.1201 -2.1797,-2.1201 l -0.02,0 z" /></g><g
       id="g304"><path
         inkscape:connector-curvature="0"
         id="path306"
         d="m 102.3872,345.333 -0.04,0 -2.2603,1.2207 -0.3398,-1.3408 2.8398,-1.5195 1.5,0 0,13 -1.6997,0 0,-11.3604 z" /><path
         inkscape:connector-curvature="0"
         id="path308"
         d="m 112.9668,356.9131 c -2.54,0 -4.2803,-2.3799 -4.3198,-6.6797 0,-4.3799 1.8999,-6.7598 4.5396,-6.7598 2.7202,0 4.3003,2.4395 4.3003,6.5801 0,4.4199 -1.6602,6.8594 -4.5,6.8594 l -0.0201,0 z m 0.0801,-1.3594 c 1.7798,0 2.6396,-2.1006 2.6396,-5.4199 0,-3.2002 -0.7998,-5.3008 -2.6396,-5.3008 -1.6001,0 -2.6401,2.04 -2.6401,5.3008 -0.04,3.3799 1,5.4199 2.6201,5.4199 l 0.02,0 z" /></g><g
       id="g310"><path
         inkscape:connector-curvature="0"
         id="path312"
         d="m 53.7212,353.333 -0.04,0 -2.2603,1.2207 -0.3398,-1.3408 2.8398,-1.5195 1.5,0 0,13 -1.6997,0 0,-11.3604 z" /><path
         inkscape:connector-curvature="0"
         id="path314"
         d="m 60.1606,364.6934 0,-1.0801 1.3799,-1.3398 c 3.3203,-3.1602 4.8403,-4.8398 4.8403,-6.7998 0,-1.3203 -0.6201,-2.54 -2.5601,-2.54 -1.1802,0 -2.1602,0.5996 -2.7603,1.0996 l -0.5601,-1.2402 c 0.8804,-0.7393 2.1802,-1.3193 3.6802,-1.3193 2.7803,0 3.96,1.9199 3.96,3.7793 0,2.4004 -1.7397,4.3408 -4.48,6.9805 l -1.02,0.96 0,0.04 5.8203,0 0,1.46 -8.3002,0 z" /></g></g><g
     id="Value_Labels"><g
       id="g317"><path
         inkscape:connector-curvature="0"
         id="path319"
         d="m 415.9941,121.0005 -0.0391,0 -2.2598,1.2197 -0.3398,-1.3398 2.8398,-1.52 1.5,0 0,13 -1.7012,0 0,-11.3599 z" /><path
         inkscape:connector-curvature="0"
         id="path321"
         d="m 426.5742,132.5806 c -2.5391,0 -4.2793,-2.3804 -4.3203,-6.6802 0,-4.3799 1.9004,-6.7603 4.541,-6.7603 2.7207,0 4.2988,2.4404 4.2988,6.5801 0,4.4199 -1.6582,6.8604 -4.5,6.8604 l -0.0195,0 z m 0.0801,-1.3604 c 1.7812,0 2.6406,-2.1001 2.6406,-5.4199 0,-3.1997 -0.8008,-5.2998 -2.6406,-5.2998 -1.5996,0 -2.6387,2.04 -2.6387,5.2998 -0.041,3.3799 1,5.4199 2.6191,5.4199 l 0.0196,0 z" /></g><g
       id="g323"><path
         inkscape:connector-curvature="0"
         id="path325"
         d="m 416.5352,202.1406 c 2.5215,0 3.8008,1.5596 3.8008,3.2002 0,1.0996 -0.5605,2.2998 -2.1602,3.0391 l 0,0.0605 c 1.6191,0.6396 2.6191,1.7998 2.6191,3.3604 0,2.2793 -1.9395,3.7793 -4.4199,3.7793 -2.7188,0 -4.3594,-1.5996 -4.3594,-3.5 0,-1.6396 0.9805,-2.8193 2.5605,-3.5 l 0,-0.0596 c -1.4609,-0.6797 -2.0801,-1.7998 -2.0801,-2.9199 0,-2.0605 1.7402,-3.46 4.0195,-3.46 l 0.0197,0 z m -0.0997,12.1602 c 1.5801,0 2.5996,-0.9805 2.5996,-2.3203 0,-1.5605 -1.0996,-2.3398 -2.8594,-2.8398 -1.5195,0.4395 -2.3398,1.46 -2.3398,2.7002 -0.0605,1.2998 0.9395,2.46 2.5801,2.46 l 0.0195,0 z m 0.0411,-10.9004 c -1.4609,0 -2.2598,0.96 -2.2598,2.0801 -0.0215,1.2998 0.9785,2 2.4785,2.3994 1.1211,-0.3799 1.9805,-1.1797 1.9805,-2.3594 0,-1.04 -0.6191,-2.1201 -2.1797,-2.1201 l -0.0195,0 z" /></g><g
       id="g327"><path
         inkscape:connector-curvature="0"
         id="path329"
         d="m 416.3164,550.5801 c -2.541,0 -4.2812,-2.3799 -4.3203,-6.6797 0,-4.3799 1.9004,-6.7598 4.5391,-6.7598 2.7207,0 4.3008,2.4395 4.3008,6.5801 0,4.4199 -1.6602,6.8594 -4.5,6.8594 l -0.0196,0 z m 0.0801,-1.3594 c 1.7793,0 2.6387,-2.1006 2.6387,-5.4199 0,-3.2002 -0.7988,-5.3008 -2.6387,-5.3008 -1.6016,0 -2.6406,2.04 -2.6406,5.3008 -0.0391,3.3799 1,5.4199 2.6191,5.4199 l 0.0215,0 z" /></g><g
       id="g331"><path
         inkscape:connector-curvature="0"
         id="path333"
         d="m 412.1758,468.3604 0,-1.0801 1.3809,-1.3398 c 3.3184,-3.1602 4.8398,-4.8398 4.8398,-6.7998 0,-1.3203 -0.6211,-2.54 -2.5605,-2.54 -1.1797,0 -2.1602,0.5996 -2.7598,1.0996 l -0.5605,-1.2402 c 0.8809,-0.7393 2.1797,-1.3193 3.6797,-1.3193 2.7812,0 3.9609,1.9199 3.9609,3.7793 0,2.4004 -1.7402,4.3408 -4.4805,6.9805 l -1.0195,0.96 0,0.04 5.8203,0 0,1.46 -8.3008,0 z" /></g><g
       id="g335"><path
         inkscape:connector-curvature="0"
         id="path337"
         d="m 419.5957,289.5801 c -0.3594,-0.0195 -0.8203,0.0205 -1.3203,0.1006 -2.7793,0.4395 -4.2188,2.46 -4.5195,4.6201 l 0.0391,0 c 0.6211,-0.8408 1.7207,-1.5205 3.1602,-1.5205 2.3008,0 3.9199,1.6797 3.9199,4.2002 0,2.3994 -1.6191,4.5996 -4.3398,4.5996 -2.7598,0 -4.5801,-2.1602 -4.5801,-5.54 0,-2.5596 0.9004,-4.5801 2.2012,-5.8799 1.0801,-1.0596 2.5195,-1.7197 4.1602,-1.9199 0.5195,-0.0801 0.959,-0.0996 1.2793,-0.0996 l 0,1.4394 z m -3.0195,10.6406 c 1.5,0 2.5195,-1.2607 2.5195,-3.1201 0,-1.8604 -1.0605,-2.9805 -2.6797,-2.9805 -1.0605,0 -2.0605,0.6406 -2.541,1.6006 -0.0996,0.1992 -0.1797,0.4395 -0.1797,0.7598 0.0215,2.1396 1.0215,3.7402 2.8613,3.7402 l 0.0196,0 z" /></g><g
       id="g339"><path
         inkscape:connector-curvature="0"
         id="path341"
         d="m 417.6152,384.3604 0,-3.54 -6.0391,0 0,-1.1396 5.7988,-8.3203 1.9004,0 0,8.0996 1.8203,0 0,1.3604 -1.8203,0 0,3.54 -1.6601,0 z m 0,-4.9004 0,-4.3594 c 0,-0.6807 0.0215,-1.3604 0.0605,-2.04 l -0.0605,0 c -0.3984,0.7598 -0.7188,1.3193 -1.0801,1.9395 l -3.1797,4.4199 0,0.04 4.2598,0 z" /></g><g
       id="g343"><path
         inkscape:connector-curvature="0"
         id="path345"
         d="m 419.9355,331.3408 -4.959,0 -0.5,3.2998 c 0.2988,-0.04 0.5801,-0.0801 1.0586,-0.0801 1.0215,0 2,0.2197 2.8008,0.7002 1.0195,0.5596 1.8594,1.6992 1.8594,3.3799 0,2.54 -2.0195,4.4395 -4.8398,4.4395 -1.4199,0 -2.5996,-0.3994 -3.2402,-0.7998 l 0.4414,-1.3398 c 0.5391,0.3203 1.5996,0.7197 2.7988,0.7197 1.6406,0 3.0801,-1.0801 3.0605,-2.8398 0,-1.7197 -1.1406,-2.9004 -3.7207,-2.9004 -0.7598,0 -1.3398,0.0605 -1.8203,0.1406 l 0.8418,-6.2002 6.2188,0 0,1.4804 z" /></g></g><g
     id="Legend"><g
       id="g348"><g
         id="g350"><g
           id="g352"><g
             id="g354"><line
               fill="none"
               stroke="#14315D"
               stroke-width="1.5"
               x1="137.793"
               y1="147.6104"
               x2="137.793"
               y2="190.5737"
               id="line356" /><path
               fill="#14315D"
               d="M137.793,196.6084c-1.0537-2.8398-2.8511-6.3628-4.7544-8.5459l4.7544,1.7192l4.7544-1.7192       C140.644,190.2456,138.8462,193.7686,137.793,196.6084z"
               id="path358" /></g></g><g
           id="g360"><g
             id="g362"><line
               fill="none"
               stroke="#14315D"
               stroke-width="1.5"
               x1="137.793"
               y1="34.5737"
               x2="137.793"
               y2="138.1104"
               id="line364" /><path
               fill="#14315D"
               d="M137.793,28.5391c1.0537,2.8398,2.8511,6.3628,4.7544,8.5459l-4.7544-1.7192l-4.7544,1.7192       C134.9419,34.9019,136.7397,31.3789,137.793,28.5391z"
               id="path366" /></g></g></g><g
         id="g368"><g
           id="g370"><g
             id="g372"><path
               fill="none"
               stroke="#0B3A18"
               stroke-width="1.5"
               d="M143.4951,83.6719c7.5166,0.2417,14.7109,0.9556,21.4058,2.0698"
               id="path374" /><path
               fill="#0B3A18"
               d="M170.8535,86.7324c-2.9741,0.5732-6.7446,1.7681-9.2104,3.2866l2.4766-4.4072l-0.9155-4.9722       C165.0454,82.875,168.2256,85.2275,170.8535,86.7324z"
               id="path376" /></g></g><g
           id="g378"><g
             id="g380"><path
               fill="none"
               stroke="#0B3A18"
               stroke-width="1.5"
               d="M206.0825,103.5732c2.541,3.0298,3.9209,6.2817,3.9209,9.6665       c0,16.3789-32.3296,29.6592-72.2104,29.6592s-72.2104-13.2803-72.2104-29.6592c0-15.6523,29.5122-28.4692,66.9258-29.5806"
               id="path382" /><path
               fill="#0B3A18"
               d="M202.2046,98.9497c2.6323,1.4985,6.2734,3.0425,9.1348,3.4927l-4.748,1.7378l-2.5376,4.3726       C204.1084,105.6567,203.2227,101.8018,202.2046,98.9497z"
               id="path384" /></g></g></g><g
         id="g386"><g
           id="g388"><line
             fill="none"
             stroke="#591D24"
             stroke-width="1.5"
             x1="125.7925"
             y1="116.4033"
             x2="38.2915"
             y2="139.4658"
             id="line390" /><path
             fill="#591D24"
             d="M32.4561,141.0039c2.4775-1.7427,5.4258-4.3789,7.0522-6.7754l-0.4512,5.0356l2.8745,4.1587      C39.3354,142.1392,35.4702,141.2983,32.4561,141.0039z"
             id="path392" /><path
             fill="#591D24"
             d="M131.6279,114.8652c-2.4775,1.7427-5.4258,4.3789-7.0522,6.7754l0.4512-5.0356l-2.8745-4.1587      C124.7485,113.73,128.6138,114.5708,131.6279,114.8652z"
             id="path394" /></g></g></g><g
       id="g396"><g
         id="g398"><path
           fill="#591D24"
           d="M35.2129,159.9873c-0.6201,0.3198-1.9199,0.6401-3.5601,0.6401c-3.7998,0-6.6396-2.4004-6.6396-6.8403     c0-4.2397,2.8599-7.0801,7.0396-7.0801c1.6602,0,2.7402,0.3604,3.2002,0.6001l-0.4399,1.4199     c-0.6401-0.3198-1.5801-0.5601-2.7002-0.5601c-3.1597,0-5.2598,2.02-5.2598,5.5601c0,3.3203,1.8999,5.4204,5.1602,5.4204     c1.0796,0,2.1597-0.2202,2.8599-0.5601L35.2129,159.9873z"
           id="path400" /><path
           fill="#591D24"
           d="M37.2939,146.207h1.7603v6.04h0.0396c0.2803-0.5,0.7202-0.96,1.2603-1.2397     c0.52-0.3203,1.1401-0.5,1.7998-0.5c1.3003,0,3.3804,0.7998,3.3804,4.1401v5.7598h-1.7603v-5.5601     c0-1.5801-0.5801-2.8799-2.2397-2.8799c-1.1401,0-2.02,0.7998-2.3604,1.7598c-0.0996,0.2402-0.1196,0.5-0.1196,0.8403v5.8398     h-1.7603V146.207z"
           id="path402" /><path
           fill="#591D24"
           d="M48.4141,153.7471c0-1.1396-0.02-2.1196-0.0801-3.02h1.54l0.0801,1.9004h0.0601     c0.4399-1.3003,1.52-2.1201,2.6997-2.1201c0.1802,0,0.3203,0.02,0.48,0.0601v1.6396c-0.1997-0.02-0.3799-0.04-0.6196-0.04     c-1.2402,0-2.1201,0.9404-2.3604,2.2402c-0.04,0.2598-0.0596,0.54-0.0596,0.8398v5.1602H48.394L48.4141,153.7471z"
           id="path404" /><path
           fill="#591D24"
           d="M58.7563,160.6274c-2.6001,0-4.6401-1.9204-4.6401-4.98c0-3.2402,2.1401-5.1401,4.8003-5.1401     c2.7798,0,4.6602,2.02,4.6602,4.96c0,3.6001-2.5,5.1602-4.8003,5.1602H58.7563z M58.8164,159.3071     c1.6802,0,2.9399-1.5801,2.9399-3.7798c0-1.6401-0.8198-3.7002-2.8999-3.7002c-2.0601,0-2.96,1.9199-2.96,3.7603     c0,2.1196,1.2002,3.7197,2.8999,3.7197H58.8164z"
           id="path406" /><path
           fill="#591D24"
           d="M65.7964,153.3472c0-1.02-0.04-1.8198-0.0801-2.6201h1.54l0.0801,1.5601h0.0601     c0.54-0.9199,1.4399-1.7798,3.0601-1.7798c1.2998,0,2.2998,0.7998,2.7197,1.9399h0.04c0.3003-0.5601,0.7002-0.96,1.1001-1.2603     c0.5801-0.4399,1.2002-0.6797,2.1201-0.6797c1.2998,0,3.1997,0.8398,3.1997,4.1997v5.7002h-1.7197v-5.48     c0-1.8799-0.7002-2.98-2.1001-2.98c-1.02,0-1.7798,0.7397-2.1001,1.5801c-0.0801,0.2598-0.1401,0.5801-0.1401,0.8799v6h-1.7197     v-5.7998c0-1.5601-0.6802-2.6602-2.02-2.6602c-1.0801,0-1.8999,0.8799-2.1802,1.7598c-0.0996,0.2603-0.1396,0.5601-0.1396,0.8604     v5.8398h-1.7202V153.3472z"
           id="path408" /><path
           fill="#591D24"
           d="M89.2964,158.0874c0,0.8398,0.04,1.6597,0.1401,2.3198h-1.5801l-0.1597-1.2202h-0.0601     c-0.52,0.7603-1.5801,1.4404-2.96,1.4404c-1.96,0-2.96-1.3804-2.96-2.7803c0-2.3398,2.0796-3.6201,5.8198-3.6001v-0.1997     c0-0.8003-0.2202-2.2603-2.2002-2.2402c-0.9199,0-1.8599,0.2603-2.54,0.7202l-0.3999-1.1802     c0.8003-0.5,1.98-0.8398,3.2002-0.8398c2.98,0,3.6997,2.02,3.6997,3.96V158.0874z M87.5767,155.4673     c-1.9199-0.04-4.1001,0.2998-4.1001,2.1802c0,1.1597,0.7603,1.6797,1.6401,1.6797c1.2798,0,2.1001-0.7998,2.3799-1.6201     c0.0601-0.1797,0.0801-0.3799,0.0801-0.5596V155.4673z"
           id="path410" /></g><g
         id="g412"><path
           fill="#14315D"
           d="M89.5229,52.6572l-4.4199-13.48h1.8999l2.1001,6.6401c0.5601,1.8198,1.0601,3.48,1.4399,5.04h0.04     c0.3799-1.5601,0.9199-3.2603,1.54-5.02l2.2798-6.6602h1.8604l-4.8203,13.48H89.5229z"
           id="path414" /><path
           fill="#14315D"
           d="M103.7651,50.3374c0,0.8398,0.04,1.6597,0.1401,2.3198h-1.5801l-0.1597-1.2202h-0.0601     c-0.52,0.7603-1.5801,1.4404-2.96,1.4404c-1.96,0-2.96-1.3804-2.96-2.7803c0-2.3398,2.0796-3.6201,5.8198-3.6001v-0.1997     c0-0.8003-0.2202-2.2603-2.2002-2.2402c-0.9199,0-1.8599,0.2603-2.54,0.7202l-0.3999-1.1802     c0.8003-0.5,1.98-0.8398,3.2002-0.8398c2.98,0,3.6997,2.02,3.6997,3.96V50.3374z M102.0454,47.7173     c-1.9199-0.04-4.1001,0.2998-4.1001,2.1802c0,1.1597,0.7603,1.6797,1.6401,1.6797c1.2798,0,2.1001-0.7998,2.3799-1.6201     c0.0601-0.1797,0.0801-0.3799,0.0801-0.5596V47.7173z"
           id="path416" /><path
           fill="#14315D"
           d="M106.585,38.457h1.7603v14.2002h-1.7603V38.457z"
           id="path418" /><path
           fill="#14315D"
           d="M119.3647,50.0171c0,1,0.02,1.8804,0.0801,2.6401h-1.5601l-0.1001-1.5801h-0.04     c-0.4399,0.7803-1.48,1.8003-3.1997,1.8003c-1.52,0-3.3403-0.8604-3.3403-4.2402v-5.6602h1.7603v5.3403     c0,1.8398,0.5801,3.0996,2.1597,3.0996c1.1802,0,2-0.8198,2.3203-1.6196c0.1001-0.2402,0.1597-0.5601,0.1597-0.8999v-5.9204     h1.7603V50.0171z"
           id="path420" /><path
           fill="#14315D"
           d="M123.2847,48.1172c0.04,2.3799,1.54,3.3599,3.2998,3.3599c1.2603,0,2.04-0.2197,2.6802-0.48     l0.3198,1.2402c-0.6196,0.2798-1.6997,0.6201-3.2397,0.6201c-2.96,0-4.7603-1.98-4.7603-4.8804     c0-2.9399,1.7402-5.2397,4.5601-5.2397c3.1602,0,3.98,2.7798,3.98,4.5601c0,0.3599-0.02,0.6396-0.0601,0.8398L123.2847,48.1172z      M128.4248,46.8574c0.02-1.1001-0.46-2.8604-2.4199-2.8604c-1.8003,0-2.5601,1.6401-2.7002,2.8604H128.4248z"
           id="path422" /></g><g
         id="g424"><path
           fill="#0B3A18"
           d="M179.8027,79.6772v5.6401h6.52v-5.6401h1.7603v13.48h-1.7603v-6.3198h-6.52v6.3198h-1.7598v-13.48     H179.8027z"
           id="path426" /><path
           fill="#0B3A18"
           d="M199.1431,90.5171c0,1,0.02,1.8804,0.0801,2.6401h-1.5601l-0.1001-1.5801h-0.04     c-0.4399,0.7803-1.48,1.8003-3.1997,1.8003c-1.52,0-3.3403-0.8604-3.3403-4.2402v-5.6602h1.7603v5.3403     c0,1.8398,0.5801,3.0996,2.1597,3.0996c1.1802,0,2-0.8198,2.3203-1.6196c0.1001-0.2402,0.1597-0.5601,0.1597-0.8999v-5.9204     h1.7603V90.5171z"
           id="path428" /><path
           fill="#0B3A18"
           d="M203.0625,88.6172c0.04,2.3799,1.54,3.3599,3.2998,3.3599c1.2603,0,2.04-0.2197,2.6802-0.48     l0.3198,1.2402c-0.6196,0.2798-1.6997,0.6201-3.2397,0.6201c-2.96,0-4.7603-1.98-4.7603-4.8804     c0-2.9399,1.7402-5.2397,4.5601-5.2397c3.1602,0,3.98,2.7798,3.98,4.5601c0,0.3599-0.02,0.6396-0.0596,0.8398L203.0625,88.6172z      M208.2026,87.3574c0.02-1.1001-0.46-2.8604-2.4199-2.8604c-1.8003,0-2.5601,1.6401-2.7002,2.8604H208.2026z"
           id="path430" /></g></g></g></svg>